<region> lovel=1 hivel=14 amp_velcurve_14=1 sample=../samples/cymbals/cy20ride/hnd/grb/cy20ride_hnd_grb_001.wav
<region> lovel=15 hivel=28 amp_velcurve_28=1 sample=../samples/cymbals/cy20ride/hnd/grb/cy20ride_hnd_grb_002.wav
<region> lovel=29 hivel=42 amp_velcurve_42=1 sample=../samples/cymbals/cy20ride/hnd/grb/cy20ride_hnd_grb_003.wav
<region> lovel=43 hivel=56 amp_velcurve_56=1 sample=../samples/cymbals/cy20ride/hnd/grb/cy20ride_hnd_grb_004.wav
<region> lovel=57 hivel=70 amp_velcurve_70=1 sample=../samples/cymbals/cy20ride/hnd/grb/cy20ride_hnd_grb_005.wav
<region> lovel=71 hivel=84 amp_velcurve_84=1 sample=../samples/cymbals/cy20ride/hnd/grb/cy20ride_hnd_grb_006.wav
<region> lovel=85 hivel=98 amp_velcurve_98=1 sample=../samples/cymbals/cy20ride/hnd/grb/cy20ride_hnd_grb_007.wav
<region> lovel=99 hivel=112 amp_velcurve_112=1 sample=../samples/cymbals/cy20ride/hnd/grb/cy20ride_hnd_grb_008.wav
<region> lovel=113 hivel=127 amp_velcurve_127=1 sample=../samples/cymbals/cy20ride/hnd/grb/cy20ride_hnd_grb_009.wav
